<?xml version="1.0" standalone="no"?>
<!DOCTYPE svg PUBLIC "-//W3C//DTD SVG 20010904//EN"
 "http://www.w3.org/TR/2001/REC-SVG-20010904/DTD/svg10.dtd">
<svg version="1.0" xmlns="http://www.w3.org/2000/svg"
 width="512.000000pt" height="512.000000pt" viewBox="0 0 512.000000 512.000000"
 preserveAspectRatio="xMidYMid meet">
<metadata>
Created by potrace 1.14, written by Peter Selinger 2001-2017
</metadata>
<g transform="translate(0.000000,512.000000) scale(0.100000,-0.100000)"
fill="#000000" stroke="none">
<path d="M2124 5106 c-76 -33 -106 -153 -57 -222 38 -53 75 -64 217 -64 l126
0 0 -104 c0 -119 7 -111 -100 -121 -193 -17 -399 -68 -600 -147 -81 -32 -271
-125 -329 -163 l-36 -22 -96 92 c-127 122 -173 145 -291 150 -71 4 -139 -11
-198 -41 -53 -27 -331 -311 -357 -364 -37 -77 -46 -119 -41 -196 7 -106 45
-176 155 -288 l87 -89 -23 -41 c-149 -266 -251 -542 -287 -781 -3 -22 -7 -42
-9 -45 -18 -29 -27 -467 -13 -601 20 -201 75 -420 154 -618 172 -428 471 -795
864 -1058 527 -354 1158 -464 1815 -319 52 12 168 48 243 75 75 28 110 43 212
89 63 29 223 123 305 180 195 135 332 266 520 493 107 130 283 454 343 634 95
279 126 469 127 760 0 223 -10 326 -51 511 -172 782 -748 1424 -1509 1682 -87
29 -178 55 -240 67 -120 23 -201 36 -267 41 l-78 7 0 108 0 109 125 0 c106 0
132 3 165 20 67 34 98 126 65 191 -22 41 -33 52 -72 73 -28 14 -82 16 -435 16
-316 -1 -410 -4 -434 -14z"/>
</g>
</svg>
